<svg width="270" height="270" viewBox="0 0 270 270" fill="none" xmlns="http://www.w3.org/2000/svg">
<rect width="270" height="270" rx="71" fill="#97D5E0"/>
<path d="M52.1152 65C43.1152 81 39.6152 106.5 52.1152 106.5C67.1152 106.5 62.1152 81.5 52.1152 65Z" fill="white"/>
<path d="M222.077 49C209.792 70.9759 205.015 106 222.077 106C242.553 106 235.728 71.6627 222.077 49Z" fill="white"/>
<path d="M157.231 19C146.994 37.506 143.012 67 157.231 67C174.294 67 168.606 38.0843 157.231 19Z" fill="white"/>
<path d="M100.539 43C94.3961 54.1807 92.0074 72 100.539 72C110.776 72 107.364 54.5301 100.539 43Z" fill="white"/>
<path d="M178.616 73C173.497 82.6386 171.506 98 178.616 98C187.147 98 184.303 82.9398 178.616 73Z" fill="white"/>
<path d="M91 231C82 231 74.5 228.5 74.5 220C74.5 211.5 80.5 202 88 202C95.5 202 103 212.5 112 212.5C121 212.5 124 202 132 202C140 202 145.5 212.5 153.5 212.5C161.5 212.5 169 204.5 180 204.5C191 204.5 203.5 209 203.5 220C203.5 231 188.5 231 180 231C171.5 231 164 224 153.5 224C143 224 142 231 132 231C122 231 120.5 224 112 224C103.5 224 100 231 91 231Z" fill="black"/>
<circle cx="92" cy="142" r="15" fill="black"/>
<circle cx="189" cy="142" r="15" fill="black"/>
<line x1="37.2361" y1="174.708" x2="26.0557" y2="197.069" stroke="#1E9FB6" stroke-width="10" stroke-linecap="round"/>
<line x1="209.889" y1="174.708" x2="198.708" y2="197.069" stroke="#1E9FB6" stroke-width="10" stroke-linecap="round"/>
<line x1="54.8885" y1="174.708" x2="43.7082" y2="197.069" stroke="#1E9FB6" stroke-width="10" stroke-linecap="round"/>
<line x1="227.541" y1="174.708" x2="216.361" y2="197.069" stroke="#1E9FB6" stroke-width="10" stroke-linecap="round"/>
<line x1="71.8885" y1="174.708" x2="60.7082" y2="197.069" stroke="#1E9FB6" stroke-width="10" stroke-linecap="round"/>
<line x1="244.541" y1="174.708" x2="233.361" y2="197.069" stroke="#1E9FB6" stroke-width="10" stroke-linecap="round"/>
</svg>
