<svg width="270" height="270" viewBox="0 0 270 270" fill="none" xmlns="http://www.w3.org/2000/svg">
<rect width="270" height="270" rx="71" fill="#C91111"/>
<circle cx="86" cy="127" r="15" fill="black"/>
<circle cx="183" cy="127" r="15" fill="black"/>
<path d="M103 117.5C106.5 116 91.4999 98.5 81.9999 96.5C72.4999 94.5 57.5 96.5 58.4999 103C59.4999 109.5 68.4999 107 79.4999 108C90.4999 109 99.5 119 103 117.5Z" fill="black"/>
<path d="M165.519 117.5C162.019 116 177.019 98.5 186.519 96.5C196.019 94.5 211.019 96.5 210.019 103C209.019 109.5 200.019 107 189.019 108C178.019 109 169.019 119 165.519 117.5Z" fill="black"/>
<path d="M177.258 202.5C184.257 199.5 166.258 165 134.258 165C102.258 165 85.2576 200 92.7576 202.5C100.258 205 110.758 191 134.258 191C157.758 191 170.258 205.5 177.258 202.5Z" fill="black"/>
</svg>
