<svg width="270" height="270" viewBox="0 0 270 270" fill="none" xmlns="http://www.w3.org/2000/svg">
<rect width="270" height="270" rx="71" fill="#CECECE"/>
<path d="M197.951 258.338C213.475 250.334 182.459 194 137.391 194C92.3237 194 56.3506 250.052 78.9443 258.338C101.538 266.623 104.295 252.924 137.391 252.924C170.488 252.924 182.427 266.341 197.951 258.338Z" fill="black"/>
<circle cx="86.5471" cy="116.242" r="15" fill="black"/>
<circle cx="183.547" cy="116.242" r="15" fill="black"/>
<path d="M44.8747 46.4468C41.2327 45.3353 54.2457 26.3113 63.4726 23.2925C72.6996 20.2737 87.828 20.6347 87.5391 27.2048C87.2502 33.7749 78.032 32.266 67.2054 34.4535C56.3789 36.6409 48.5168 47.5582 44.8747 46.4468Z" fill="black"/>
<path d="M219.301 46.4468C222.943 45.3353 209.93 26.3113 200.703 23.2925C191.476 20.2737 176.348 20.6347 176.637 27.2048C176.926 33.7749 186.144 32.266 196.971 34.4535C207.797 36.6409 215.659 47.5582 219.301 46.4468Z" fill="black"/>
</svg>
